<svg version="1.1" xmlns="http://www.w3.org/2000/svg" xmlns:xlink="http://www.w3.org/1999/xlink" x="0px" y="0px"
	 width="222.086px" height="71.676px" viewBox="0 0 222.086 71.676" enable-background="new 0 0 222.086 71.676"
	 xml:space="preserve">
<g>
	<defs>
		<rect id="SVGID_1_" y="0" width="222.086" height="71.676"/>
	</defs>
	<clipPath id="SVGID_2_">
		<use xlink:href="#SVGID_1_"  overflow="visible"/>
	</clipPath>
	
		<rect x="29.9" y="1" clip-path="url(#SVGID_2_)" fill="none" stroke="#6E0000" stroke-width="2" stroke-linecap="round" stroke-linejoin="round" stroke-miterlimit="10" width="3.735" height="54.468"/>
	
		<path clip-path="url(#SVGID_2_)" fill="none" stroke="#6E0000" stroke-width="2" stroke-linecap="round" stroke-linejoin="round" stroke-miterlimit="10" d="
		M117.892,13.627c0.754,0.178,4.737,0,4.737,0l-0.098,43.3l-4.639-0.334V13.627z"/>
	
		<path clip-path="url(#SVGID_2_)" fill="none" stroke="#6E0000" stroke-width="2" stroke-linecap="round" stroke-linejoin="round" stroke-miterlimit="10" d="
		M33.635,12.916c12.983,1.067,77.384,2.134,77.384,2.134l2.137-1.778l46.929,1.423v2.49l47.307,1.244v35.748h-46.774l-0.178,2.416
		h-42.547v-3.839H95.559l-5.304,2.448l-56.62,0.266V12.916z"/>
	
		<polygon clip-path="url(#SVGID_2_)" fill="none" stroke="#6E0000" stroke-width="2" stroke-linecap="round" stroke-linejoin="round" stroke-miterlimit="10" points="
		39.682,18.607 62.362,19.318 62.362,37.032 39.682,37.032 	"/>
	
		<polygon clip-path="url(#SVGID_2_)" fill="none" stroke="#6E0000" stroke-width="2" stroke-linecap="round" stroke-linejoin="round" stroke-miterlimit="10" points="
		66.537,19.497 88.163,20.208 88.163,37.993 66.537,37.637 	"/>
	
		<polygon clip-path="url(#SVGID_2_)" fill="none" stroke="#6E0000" stroke-width="2" stroke-linecap="round" stroke-linejoin="round" stroke-miterlimit="10" points="
		91.435,20.386 91.609,38.681 109.861,38.681 109.861,20.831 	"/>
	
		<polygon clip-path="url(#SVGID_2_)" fill="none" stroke="#6E0000" stroke-width="2" stroke-linecap="round" stroke-linejoin="round" stroke-miterlimit="10" points="
		125.76,20.386 125.743,38.749 153.326,38.749 153.326,21.097 	"/>
	
		<rect x="160.262" y="22.698" clip-path="url(#SVGID_2_)" fill="none" stroke="#6E0000" stroke-width="2" stroke-linecap="round" stroke-linejoin="round" stroke-miterlimit="10" width="6.58" height="16.051"/>
	
		<polygon clip-path="url(#SVGID_2_)" fill="none" stroke="#6E0000" stroke-width="2" stroke-linecap="round" stroke-linejoin="round" stroke-miterlimit="10" points="
		171.289,23.409 171.289,38.748 186.94,38.748 186.94,24.12 	"/>
	
		<polygon clip-path="url(#SVGID_2_)" fill="none" stroke="#6E0000" stroke-width="2" stroke-linecap="round" stroke-linejoin="round" stroke-miterlimit="10" points="
		190.141,24.298 190.141,38.748 204.724,38.748 204.724,25.01 	"/>
	
		<polygon clip-path="url(#SVGID_2_)" fill="none" stroke="#6E0000" stroke-width="2" stroke-linecap="round" stroke-linejoin="round" stroke-miterlimit="10" points="
		156.256,14.579 155.905,56.593 160.44,56.593 160.084,14.695 	"/>
	
		<polyline clip-path="url(#SVGID_2_)" fill="none" stroke="#6E0000" stroke-width="2" stroke-linecap="round" stroke-linejoin="round" stroke-miterlimit="10" points="
		207.759,17.018 210.827,17.018 211.216,54.355 207.392,54.177 207.392,16.452 	"/>
	
		<polygon clip-path="url(#SVGID_2_)" fill="none" stroke="#6E0000" stroke-width="2" stroke-linecap="round" stroke-linejoin="round" stroke-miterlimit="10" points="
		33.635,8.736 105.441,12.071 105.441,8.736 33.635,4.868 	"/>
	
		<polygon clip-path="url(#SVGID_2_)" fill="none" stroke="#6E0000" stroke-width="2" stroke-linecap="round" stroke-linejoin="round" stroke-miterlimit="10" points="
		105.441,12.071 112.244,9.803 112.244,6.469 105.441,8.736 	"/>
	
		<polygon clip-path="url(#SVGID_2_)" fill="none" stroke="#6E0000" stroke-width="2" stroke-linecap="round" stroke-linejoin="round" stroke-miterlimit="10" points="
		112.243,9.804 170.399,12.072 170.399,9.271 112.243,6.47 	"/>
	
		<polyline clip-path="url(#SVGID_2_)" fill="none" stroke="#6E0000" stroke-width="2" stroke-linecap="round" stroke-linejoin="round" stroke-miterlimit="10" points="
		160.085,14.694 170.399,12.072 221.087,13.56 221.087,16.874 161.863,15.051 	"/>
	
		<line clip-path="url(#SVGID_2_)" fill="none" stroke="#6E0000" stroke-width="2" stroke-linecap="round" stroke-linejoin="round" stroke-miterlimit="10" x1="105.441" y1="12.071" x2="111.019" y2="15.05"/>
	
		<polyline clip-path="url(#SVGID_2_)" fill="none" stroke="#6E0000" stroke-width="2" stroke-linecap="round" stroke-linejoin="round" stroke-miterlimit="10" points="
		211.216,54.354 211.216,69.314 186.94,68.966 186.94,70.586 87.167,70.675 84.603,69.787 33.635,69.787 29.9,69.787 29.9,55.467 	
		"/>
	
		<polyline clip-path="url(#SVGID_2_)" fill="none" stroke="#6E0000" stroke-width="2" stroke-linecap="round" stroke-linejoin="round" stroke-miterlimit="10" points="
		186.939,68.967 186.939,50.976 175.557,41.016 160.084,41.016 	"/>
	
		<polyline clip-path="url(#SVGID_2_)" fill="none" stroke="#6E0000" stroke-width="2" stroke-linecap="round" stroke-linejoin="round" stroke-miterlimit="10" points="
		85.885,70.231 85.885,52.576 98.179,38.681 117.892,38.681 	"/>
	
		<polyline clip-path="url(#SVGID_2_)" fill="none" stroke="#6E0000" stroke-width="2" stroke-linecap="round" stroke-linejoin="round" stroke-miterlimit="10" points="
		117.892,43.99 100.648,43.99 85.885,59.156 	"/>
	
		<polyline clip-path="url(#SVGID_2_)" fill="none" stroke="#6E0000" stroke-width="2" stroke-linecap="round" stroke-linejoin="round" stroke-miterlimit="10" points="
		85.885,65.611 100.649,50.442 117.892,50.442 	"/>
	
		<polyline clip-path="url(#SVGID_2_)" fill="none" stroke="#6E0000" stroke-width="2" stroke-linecap="round" stroke-linejoin="round" stroke-miterlimit="10" points="
		160.44,45.818 174.668,45.996 186.939,56.593 	"/>
	
		<polyline clip-path="url(#SVGID_2_)" fill="none" stroke="#6E0000" stroke-width="2" stroke-linecap="round" stroke-linejoin="round" stroke-miterlimit="10" points="
		160.262,51.509 174.312,51.509 186.939,63.386 	"/>
	
		<polyline clip-path="url(#SVGID_2_)" fill="none" stroke="#6E0000" stroke-width="2" stroke-linecap="round" stroke-linejoin="round" stroke-miterlimit="10" points="
		29.9,1 1,23.542 1,65.611 29.9,69.786 	"/>
</g>
</svg>
