<?xml version="1.0" encoding="utf-8"?>
<!-- Generator: Adobe Illustrator 17.0.0, SVG Export Plug-In . SVG Version: 6.00 Build 0)  -->
<!DOCTYPE svg PUBLIC "-//W3C//DTD SVG 1.1//EN" "http://www.w3.org/Graphics/SVG/1.1/DTD/svg11.dtd">
<svg version="1.1" id="Layer_1" xmlns="http://www.w3.org/2000/svg" xmlns:xlink="http://www.w3.org/1999/xlink" x="0px" y="0px"
	 width="630.455px" height="208.857px" viewBox="0 0 630.455 208.857" enable-background="new 0 0 630.455 208.857"
	 xml:space="preserve">
<g>
	<defs>
		<rect id="SVGID_1_" width="630.455" height="208.857"/>
	</defs>
	<clipPath id="SVGID_2_">
		<use xlink:href="#SVGID_1_"  overflow="visible"/>
	</clipPath>
	<path clip-path="url(#SVGID_2_)" fill="#6E0000" d="M133.714,133.639c-0.52-1.431-1.197-3.335-2.027-5.711
		c-0.83-2.379-1.754-5.427-2.765-9.15c-0.507-1.86-1.245-4.921-2.213-9.186c-0.972-4.262-2.059-9.073-3.263-14.43
		c-1.207-5.358-2.448-11.003-3.721-16.929c-1.275-5.929-2.447-11.506-3.516-16.734c-1.074-5.226-1.999-9.791-2.787-13.694
		c-0.787-3.905-1.227-6.566-1.315-7.982c-0.494-4.259-0.55-8.56-0.18-12.899c0.373-4.339,1.353-7.877,2.948-10.616l-38.838,8.351
		c3.301,3.231,6.089,6.317,8.372,9.259c2.28,2.943,3.98,6.532,5.106,10.76c0.372,1.253,0.971,3.666,1.794,7.24
		c0.82,3.58,1.772,7.753,2.851,12.526c1.079,4.772,2.247,9.95,3.5,15.537c1.256,5.588,2.441,10.974,3.558,16.164
		c-5.964-5.477-11.814-10.796-17.544-15.952c-5.732-5.156-11.223-10.296-16.473-15.424c-5.251-5.126-10.209-10.328-14.877-15.606
		c-4.673-5.277-8.985-10.82-12.945-16.625L0,41.004c2.992,2.766,5.184,4.73,6.579,5.893c1.394,1.165,2.51,2.15,3.349,2.953
		c0.839,0.808,1.681,1.69,2.528,2.653c0.845,0.963,2.323,2.522,4.438,4.676c0.53,1.962,1.278,5.075,2.247,9.34
		c0.969,4.263,2.063,9.097,3.28,14.506c1.216,5.409,2.456,11.051,3.72,16.928c1.262,5.878,2.425,11.406,3.484,16.579
		c1.059,5.177,1.954,9.722,2.693,13.638c0.735,3.914,1.198,6.57,1.393,7.964c0.49,4.261,0.7,8.526,0.634,12.799
		c-0.067,4.276-0.897,7.781-2.49,10.519l37.77-8.121c-3.422-3.308-6.232-6.418-8.424-9.329c-2.192-2.907-3.854-6.479-4.976-10.707
		c-0.364-1.201-0.966-3.574-1.808-7.118c-0.842-3.545-1.805-7.704-2.88-12.479c-1.079-4.77-2.233-9.886-3.461-15.347
		c-1.225-5.456-2.385-10.732-3.483-15.82c5.459,5.108,10.9,10.272,16.33,15.496c5.429,5.221,10.958,10.393,16.578,15.519
		c5.621,5.128,11.36,10.243,17.214,15.346c5.858,5.102,11.977,10.136,18.363,15.097l22.433-4.823
		C134.979,136.429,134.379,135.253,133.714,133.639"/>
	<path clip-path="url(#SVGID_2_)" fill="#6E0000" d="M598.199,59.263l0.256,3.475c0.072,0.098,0.067,0.439-0.114,0.962
		c-0.339,0.958-0.943,2.038-1.797,3.2c-0.929,1.264-1.989,2.581-3.141,3.914c-1.206,1.386-2.297,2.673-3.24,3.82
		c-1.274,1.538-2.963,3.436-5.02,5.639c-1.452,1.553-3.053,3.292-4.791,5.192c-0.57-2.41-1.107-4.608-1.603-6.56
		c-0.707-2.786-1.312-5.221-1.797-7.238l-0.007-0.031c-0.35-1.369-0.678-2.945-0.972-4.678c-0.291-1.747-0.513-3.428-0.66-4.998
		c-0.136-1.478-0.136-2.772,0.014-3.842c0.093-0.658,0.246-0.897,0.282-0.945l1.89-2.905l-32.752-8.125
		c1.137,2.583,4.552,13.738,5.747,17.318c1.2,3.611,2.429,7.55,3.649,11.706c1.217,4.159,2.323,8.176,3.283,11.93
		c0.87,3.402,1.728,6.775,2.553,10.018c0.582,2.294,0.972,3.846,1.232,4.88c-2.621,2.863-5.553,6.166-8.723,9.841
		c-3.43,3.968-6.977,7.927-10.549,11.77c-3.541,3.809-5.415,6.105-8.7,9.312c-1.39,1.358-5.745,6.323-7.206,8.115l-2.636,2.727
		l32.261,7.786c-0.481-0.529-0.543-4.94-0.238-6.196l0.007-0.035c0.391-1.784,1.348-3.949,2.852-6.438
		c1.485-2.473,3.432-5.227,5.78-8.181c1.737-2.181,3.644-4.435,5.706-6.729c0.672,2.609,1.322,5.178,1.944,7.675
		c0.878,3.526,1.561,6.824,2.027,9.806c0.459,2.903,0.634,5.434,0.523,7.523c-0.047,0.632-0.135,1.217-0.259,1.745
		c-0.219,0.894-1.289,4.328-1.775,4.827l36.438,8.794c-0.759-1.14-3.189-6.536-4.232-8.843c-1.089-2.413-2.249-5.233-3.44-8.377
		c-1.2-3.156-2.398-6.584-3.56-10.182c-1.174-3.616-2.316-7.269-3.404-10.859c-1.078-3.552-2.121-7.028-3.099-10.33
		c-0.813-2.732-1.559-5.233-2.222-7.449c0.737-0.757,1.771-1.858,3.136-3.323c2.301-2.476,4.5-4.852,6.72-7.252
		c2.531-2.734,5.324-5.69,8.299-8.785c2.952-3.07,5.893-5.985,8.739-8.658c2.803-2.639,4.691-4.805,7.219-6.661
		c2.945-2.165,6.396-5.306,7.636-6.57L598.199,59.263z"/>
	<path clip-path="url(#SVGID_2_)" fill="#6E0000" d="M294.057,120.653c-1.082-0.837-5.105-5.179-6.831-7.028
		c-1.802-1.941-3.799-4.242-5.935-6.845c-2.144-2.608-4.37-5.473-6.623-8.513c-2.263-3.051-4.509-6.149-6.688-9.205
		c-2.155-3.023-4.252-5.984-6.234-8.802c-1.637-2.331-3.141-4.461-4.481-6.351c0.457-0.952,1.088-2.324,1.912-4.149
		c1.392-3.083,2.717-6.031,4.056-9.017c1.527-3.398,3.228-7.091,5.062-10.972c1.819-3.852,3.677-7.552,5.519-10.997
		c1.818-3.392,2.914-6.05,4.719-8.617c2.1-2.989,4.365-7.067,5.137-8.658l-33.053,2.912l1.352,3.209
		c0.102,0.07,0.207,0.395,0.199,0.948c-0.014,1.019-0.243,2.235-0.682,3.607c-0.475,1.496-1.059,3.081-1.727,4.713
		c-0.699,1.696-1.326,3.263-1.855,4.652c-0.713,1.865-1.709,4.201-2.956,6.945c-0.879,1.938-1.845,4.096-2.885,6.451
		c-1.309-2.104-2.518-4.013-3.611-5.709c-1.56-2.412-2.908-4.526-4.013-6.285l-0.014-0.025c-0.773-1.186-1.586-2.575-2.412-4.126
		c-0.836-1.562-1.587-3.083-2.222-4.524c-0.605-1.356-1.013-2.583-1.212-3.648c-0.125-0.65-0.055-0.926-0.035-0.983l0.861-3.356
		l-33.63,2.749c1.899,2.086,8.693,11.567,10.969,14.579c2.291,3.039,4.713,6.378,7.195,9.927c2.482,3.555,4.811,7.009,6.919,10.261
		c1.909,2.947,3.798,5.868,5.613,8.68c1.283,1.991,2.148,3.335,2.727,4.232c-1.574,3.55-3.299,7.617-5.132,12.112
		c-1.981,4.854-4.082,9.737-6.24,14.519c-2.14,4.738-3.184,7.512-5.273,11.6c-0.886,1.729-3.428,7.827-4.244,9.993l-1.626,3.421
		l33.061-2.912c-0.624-0.347-2.092-4.506-2.205-5.794l-0.005-0.037c-0.197-1.817,0.021-4.175,0.648-7.009
		c0.619-2.82,1.585-6.052,2.87-9.6c0.95-2.619,2.043-5.367,3.26-8.199c1.469,2.259,2.907,4.49,4.292,6.657
		c1.957,3.06,3.657,5.969,5.052,8.644c1.358,2.606,2.331,4.948,2.892,6.965c0.16,0.615,0.263,1.197,0.31,1.735
		c0.08,0.916,0.162,4.513-0.139,5.14L294.057,120.653z"/>
	<path clip-path="url(#SVGID_2_)" fill="#6E0000" d="M528.496,42.983l-34.015-6.832l1.312,3.22c1.257,3.089,1.844,5.883,1.752,8.304
		c-0.103,2.604-0.4,5.556-0.882,8.768c-0.243,1.213-0.61,3.249-1.091,6.055c-0.497,2.886-1.118,6.289-1.848,10.107
		c-0.728,3.858-1.536,8.081-2.395,12.563c-0.409,2.196-0.847,4.412-1.305,6.587c-0.44,2.101-0.887,4.269-1.328,6.444
		c-0.912,4.351-1.734,8.155-2.514,11.626c-0.785,3.52-1.475,6.341-2.045,8.386c-0.638,2.088-1.237,4.021-1.777,5.753
		c-0.455,1.473-0.886,2.748-1.273,3.786c-0.373,1.002-0.747,1.838-1.097,2.488c-0.345,0.634-0.712,1.209-1.097,1.702l-1.857,2.383
		l33.932,6.818l0.198-3.131c-1.034-1.232-1.306-2.084-2.012-3.488c-0.621-1.251-1.107-3.011-1.44-5.231
		c-0.34-2.225-0.233-5.129,0.316-8.63l0.003-0.02c0.212-1.451,0.624-3.807,1.223-7.004c0.604-3.204,1.288-6.887,2.045-10.949
		c0.723-3.914,1.497-8.084,2.37-12.741c0.822-4.408,1.62-8.632,2.37-12.556c0.749-3.935,1.406-7.422,1.955-10.36l0.525-2.627
		c0.306-1.519,0.555-2.644,0.735-3.35c0.454-1.643,0.847-3.234,1.167-4.727c0.297-1.387,0.67-2.704,1.107-3.916
		c0.426-1.18,0.991-2.366,1.681-3.52c0.666-1.123,1.604-2.28,2.779-3.437L528.496,42.983z"/>
	<path clip-path="url(#SVGID_2_)" fill="#6E0000" d="M157.237,132.878l-0.928,2.877l34.218-5.199l-0.883-3.008
		c-1.391-0.804-1.941-1.513-3.086-2.592c-1.013-0.961-2.07-2.451-3.141-4.423c-1.077-1.972-1.971-4.738-2.653-8.218l-0.007-0.02
		c-0.298-1.432-0.716-3.787-1.243-7c-0.532-3.215-1.146-6.912-1.826-10.984c-0.656-3.929-1.351-8.111-2.126-12.789
		c-0.732-4.422-1.428-8.663-2.068-12.606c-0.643-3.953-1.217-7.458-1.703-10.401l-0.406-2.65c-0.231-1.534-0.384-2.676-0.458-3.402
		c-0.132-1.698-0.309-3.327-0.517-4.84c-0.193-1.407-0.294-2.771-0.298-4.059c-0.002-1.254,0.123-2.562,0.376-3.884
		c0.244-1.282,0.727-2.688,1.436-4.179l1.509-3.177l-34.298,5.209l2.331,2.578c2.237,2.473,3.747,4.897,4.484,7.203
		c0.795,2.484,1.524,5.36,2.172,8.544c0.186,1.218,0.538,3.257,1.044,6.061c0.521,2.884,1.099,6.291,1.725,10.13
		c0.627,3.875,1.316,8.12,2.042,12.625c0.365,2.203,0.712,4.435,1.024,6.635c0.304,2.125,0.627,4.315,0.961,6.511
		c0.624,4.4,1.151,8.256,1.607,11.784c0.463,3.576,0.784,6.463,0.946,8.58c0.113,2.178,0.215,4.203,0.301,6.013
		c0.069,1.543,0.102,2.887,0.093,3.997c-0.009,1.065-0.07,1.979-0.176,2.709C157.581,131.617,157.427,132.283,157.237,132.878"/>
	<path clip-path="url(#SVGID_2_)" fill="#6E0000" d="M413.346,101.768c2.576-5.295,5.277-10.803,8.097-16.525
		c2.818-5.722,5.479-11.063,7.977-16.028c2.5-4.963,4.46-9.343,5.884-13.142c1.426-3.798,3.081-6.331,3.649-8.007
		c-0.211,4.048-0.431,8.529-0.649,14.011c-0.221,5.478-1.134,11.209-1.43,17.019c-0.234,4.36-0.516,8.664-0.847,12.91
		c-0.11,1.398-0.221,2.798-0.327,4.195c-0.481,5.487-1.144,10.333-1.987,14.541c-0.847,5.091-1.683,9.168-2.503,12.232
		c-0.821,3.062-1.503,5.173-2.042,6.33l37.19,2.893c-0.921-1.582-1.836-3.882-2.751-6.895c-0.91-3.015-1.571-7.249-1.978-12.7
		c-0.418-5.348-0.718-11.364-0.902-18.047c-0.183-6.684-0.256-13.607-0.219-20.769c0.036-7.163,0.177-14.331,0.421-21.502
		c0.247-7.171,0.627-14.047,1.138-20.625c0.471-6.059,1.172-10.942,2.116-14.648c0.943-3.702,1.824-6.176,2.649-7.413l-30.847-2.402
		c0.226,0.486,0.302,1.169,0.237,2.051c-0.083,1.038-0.351,2.345-0.791,3.925c-0.875,2.953-2.142,6.582-3.792,10.883
		c-1.655,4.301-3.652,9.056-5.99,14.267c-2.342,5.209-4.824,10.462-7.441,15.755c-2.619,5.294-5.24,10.459-7.862,15.491
		c-2.627,5.032-5.085,9.544-7.39,13.533c-1.916-6.454-3.827-13.168-5.731-20.143c-1.904-6.974-3.741-13.943-5.512-20.907
		c-1.773-6.964-3.407-13.762-4.91-20.391c-1.5-6.63-2.857-12.833-4.079-18.61L343.532,0c0.626,1.352,1.22,3.939,1.786,7.757
		c0.559,3.825,0.603,8.766,0.13,14.825c-0.667,8.598-1.487,17.264-2.453,25.995c-0.966,8.73-2.141,17.328-3.528,25.79
		c-1.392,8.464-3.06,16.686-5.011,24.663c-1.949,7.977-4.207,15.432-6.78,22.372l34.255,2.667
		c-1.015-5.603-1.495-11.932-1.438-18.988c0.056-7.056,0.39-14.274,0.989-21.651c0.598-7.379,1.327-14.632,2.185-21.756
		c0.854-7.125,1.619-13.605,2.295-19.441c0.508,1.761,1.386,4.643,2.633,8.648c1.251,4.005,2.678,8.65,4.282,13.934
		c1.604,5.282,3.328,10.941,5.172,16.972c1.845,6.034,3.648,11.891,5.412,17.579c1.761,5.687,3.425,10.908,4.989,15.669
		c1.565,4.759,2.778,8.554,3.636,11.383l9.701,0.752c0.992-2.578,2.526-6.133,4.593-10.663
		C408.446,111.981,410.769,107.068,413.346,101.768"/>
	<path clip-path="url(#SVGID_2_)" fill="#6E0000" d="M493.877,190.62c0-3.207-2.601-5.805-5.807-5.805
		c-3.207,0-5.808,2.598-5.808,5.805c0,3.209,2.601,5.807,5.808,5.807C491.276,196.427,493.877,193.829,493.877,190.62"/>
	<path clip-path="url(#SVGID_2_)" fill="#6E0000" d="M156.857,190.62c0-3.207-2.601-5.805-5.805-5.805
		c-3.209,0-5.809,2.598-5.809,5.805c0,3.209,2.6,5.807,5.809,5.807C154.256,196.427,156.857,193.829,156.857,190.62"/>
	<path clip-path="url(#SVGID_2_)" fill="#6E0000" d="M182.776,169.965c-0.966,0-1.837,0.035-2.583,0.086v-0.086h-4.565v2.622v33.738
		v2.064h1.305c0.254,0.122,0.538,0.197,0.836,0.216c1.276,0.082,2.539,0.122,3.761,0.122c9.168,0,15.969-2.306,20.213-6.856
		c4.831-5.171,4.371-11.163,4.371-11.165C205.863,171.985,189.71,169.965,182.776,169.965 M198.364,198.798
		c-3.54,3.765-9.659,5.559-18.168,5.344V174.63c0.688-0.051,1.573-0.097,2.58-0.097c12.311,0,18.626,5.487,18.77,16.344
		C201.549,190.92,201.726,195.229,198.364,198.798"/>
	<polygon clip-path="url(#SVGID_2_)" fill="#6E0000" points="214.095,172.366 214.095,206.106 214.095,208.391 216.377,208.391 
		216.38,208.391 218.662,208.391 218.662,206.106 218.662,172.366 218.662,169.966 214.095,169.966 	"/>
	<path clip-path="url(#SVGID_2_)" fill="#6E0000" d="M254.849,172.346c0,0.007-0.003,0.013-0.003,0.021v27.495l-20.009-29.896v1.672
		v-1.661l-4.567-0.011v2.401v33.741v2.282l4.567,0.011v-2.274c0-0.008,0.003-0.014,0.003-0.019v-27.436l20.009,29.718v-1.557v0.003
		v1.554h2.282h0.003h2.283v-2.282v-33.741v-2.401h-4.568V172.346z"/>
	<polygon clip-path="url(#SVGID_2_)" fill="#6E0000" points="268.924,169.964 268.924,169.964 268.924,174.651 268.924,186.893 
		268.924,191.578 268.924,203.823 268.924,208.391 291.514,208.391 291.514,203.823 289.227,203.823 273.492,203.823 
		273.492,191.578 287.294,191.578 287.294,186.893 273.492,186.893 273.492,174.651 289.227,174.651 291.514,174.651 
		291.514,169.964 273.492,169.964 	"/>
	<path clip-path="url(#SVGID_2_)" fill="#6E0000" d="M311.085,191.486c4.551-0.507,7.967-1.855,10.171-4.018
		c2.459-2.416,2.614-5.009,2.603-5.681c0.223-3.072-0.718-5.641-2.799-7.634c-3.729-3.57-10.416-4.319-15.376-4.319
		c-1.434,0-2.684,0.063-3.599,0.129h-3.579v2.416v34.192v2.286h4.564v-2.266c0-0.005,0.004-0.012,0.004-0.02v-14.97
		c0.948,0.058,1.926,0.093,2.988,0.104 M303.074,187.024v-12.553c0.819-0.047,1.678-0.072,2.52-0.072
		c3.406,0,9.531,0.396,12.304,3.052c1.093,1.05,1.455,2.348,1.419,3.853c-0.006,0.119-0.028,0.431-0.023,0.503
		c0,0.05-0.017,1.201-1.24,2.401C316.449,185.787,312.526,187.688,303.074,187.024"/>
	<path clip-path="url(#SVGID_2_)" fill="#6E0000" d="M388.022,191.486c4.549-0.507,7.964-1.855,10.172-4.018
		c2.458-2.416,2.613-5.009,2.601-5.681c0.224-3.072-0.717-5.641-2.8-7.634c-3.729-3.57-10.418-4.319-15.376-4.319
		c-1.431,0-2.682,0.063-3.601,0.129h-3.576v2.416v34.192v2.286h4.565v-2.266v-0.02v-14.97c0.954,0.058,1.927,0.093,2.994,0.104
		 M380.007,187.024v-12.553c0.819-0.047,1.678-0.072,2.52-0.072c3.407,0,9.53,0.396,12.304,3.052
		c1.097,1.05,1.458,2.348,1.418,3.853c0,0.119-0.025,0.431-0.018,0.503c0,0.05-0.018,1.201-1.242,2.401
		C393.386,185.787,389.461,187.688,380.007,187.024"/>
	<polyline clip-path="url(#SVGID_2_)" fill="#6E0000" points="309.453,191.416 320.97,208.857 326.205,208.857 314.277,190.949 	"/>
	<path clip-path="url(#SVGID_2_)" fill="#6E0000" d="M456.21,191.486c4.548-0.507,7.966-1.855,10.171-4.018
		c2.456-2.416,2.614-5.009,2.603-5.681c0.221-3.072-0.718-5.641-2.802-7.634c-3.728-3.57-10.415-4.319-15.373-4.319
		c-1.434,0-2.684,0.063-3.601,0.129h-3.58v2.416v34.192v2.286h4.565v-2.266c0-0.005,0.004-0.012,0.004-0.02v-14.97
		c0.951,0.058,1.926,0.093,2.991,0.104 M448.197,187.024v-12.553c0.818-0.047,1.677-0.072,2.518-0.072
		c3.407,0,9.532,0.396,12.306,3.052c1.093,1.05,1.455,2.348,1.418,3.853c-0.003,0.119-0.025,0.431-0.019,0.503
		c0,0.05-0.018,1.201-1.244,2.401C461.572,185.787,457.651,187.688,448.197,187.024"/>
	<polyline clip-path="url(#SVGID_2_)" fill="#6E0000" points="454.571,191.416 466.092,208.857 471.33,208.857 459.402,190.949 	"/>
	<path clip-path="url(#SVGID_2_)" fill="#6E0000" d="M350.334,182.605c0-1.418-0.904-2.757-2.717-2.757
		c-1.696,0-3.156,1.143-3.156,3.034c0,1.576,1.106,2.76,2.287,4.021l6.073,6.506c0.474-1.303,0.706-2.76,0.787-4.378h3.625
		c-0.079,2.487-0.709,4.968-1.893,7.058l4.891,5.242h-5.128l-2.124-2.206c-1.734,1.615-3.984,2.6-6.625,2.6
		c-4.772,0-8.042-3.112-8.042-7.488c0-2.801,1.734-5.164,4.178-6.466c-1.144-1.421-1.811-2.838-1.811-4.77
		c0-3.903,2.995-6.268,6.938-6.268c4.296,0,6.622,2.682,6.622,5.872H350.334z M350.81,196.758l-6.192-6.583
		c-1.538,0.67-2.6,2.248-2.6,4.062c0,2.521,1.694,4.256,4.336,4.256C348.167,198.493,349.667,197.864,350.81,196.758"/>
	<path clip-path="url(#SVGID_2_)" fill="#6E0000" d="M398.91,191.523c-3.728-3.569-10.418-4.318-15.372-4.318
		c-1.436,0-2.684,0.064-3.606,0.133h-3.576l3.651,7.775l0.034-3.271c0.818-0.046,2.561-0.071,3.406-0.071
		c3.404,0,9.528,0.397,12.303,3.053c1.095,1.048,1.455,2.346,1.414,3.853c0,0.119-0.022,0.431-0.017,0.502
		c0,0.047-0.016,1.198-1.243,2.402c-1.254,1.23-4.061,2.68-9.658,2.934l1.771,4.341c5.391-0.373,8.888-1.854,11.091-4.018
		c2.458-2.415,2.616-5.006,2.605-5.68C401.933,196.089,400.995,193.52,398.91,191.523"/>
	<path clip-path="url(#SVGID_2_)" fill="#6E0000" d="M388.022,208.855h-8.817v-4.659c0,0,4.564,0.373,7.042,0.318L388.022,208.855z"
		/>
	<path clip-path="url(#SVGID_2_)" fill="#6E0000" d="M424.753,169.638h-5.711l-11.809,39.021h4.989l3.698-12.303l12.127,0.07
		l4.124,12.233h4.781L424.753,169.638z M417.064,192.234l4.943-16.79l4.695,16.759L417.064,192.234z"/>
</g>
</svg>
