<svg xmlns="http://www.w3.org/2000/svg" xmlns:xlink="http://www.w3.org/1999/xlink" width="222.086" height="71.676" viewBox="0 0 222.086 71.676"><defs><path id="a" d="M0 0h222.086v71.676H0z"/></defs><clipPath id="b"><use xlink:href="#a" overflow="visible"/></clipPath><path clip-path="url(#b)" stroke="#6E0000" stroke-width="2" stroke-linecap="round" stroke-linejoin="round" stroke-miterlimit="10" fill="none" d="M29.9 1h3.735v54.468H29.9zM117.892 13.627c.754.178 4.737 0 4.737 0l-.1 43.3-4.638-.334V13.627zM33.635 12.916c12.983 1.067 77.384 2.134 77.384 2.134l2.136-1.778 46.93 1.423v2.49l47.306 1.244v35.747h-46.774l-.178 2.416h-42.547v-3.84H95.56l-5.305 2.45-56.62.265V12.916zM39.682 18.607l22.68.71v17.715h-22.68zM66.537 19.497l21.626.71v17.786l-21.626-.356zM91.435 20.386l.174 18.295h18.25V20.83zM125.76 20.386l-.017 18.363h27.583V21.096zM160.262 22.698h6.58v16.05h-6.58zM171.29 23.41v15.338h15.65V24.12zM190.14 24.298v14.45h14.584V25.01zM156.256 14.58l-.35 42.013h4.534l-.356-41.898zM207.76 17.018h3.067l.39 37.337-3.825-.178V16.452"/><path clip-path="url(#b)" stroke="#6E0000" stroke-width="2" stroke-linecap="round" stroke-linejoin="round" stroke-miterlimit="10" fill="none" d="M33.635 8.736l71.806 3.335V8.737L33.636 4.868zM105.44 12.07l6.804-2.267V6.47l-6.803 2.266zM112.243 9.804l58.156 2.268v-2.8L112.242 6.47zM160.085 14.694l10.314-2.622 50.687 1.488v3.314l-59.224-1.823M105.44 12.07l5.58 2.98M211.216 54.354v14.96l-24.276-.348v1.62l-99.773.09-2.564-.89H29.9v-14.32M186.94 68.967v-17.99l-11.383-9.96h-15.473M85.885 70.23V52.577L98.18 38.68h19.712M117.892 43.99h-17.244L85.885 59.156M85.885 65.61l14.764-15.168h17.242M160.44 45.818l14.228.178 12.27 10.597M160.262 51.51h14.05l12.627 11.876M29.9 1L1 23.542v42.07l28.9 4.174"/></svg>