<svg xmlns="http://www.w3.org/2000/svg" xmlns:xlink="http://www.w3.org/1999/xlink" width="222.086" height="71.676" viewBox="0 0 222.086 71.676"><defs><path id="a" d="M0 0h222.086v71.676h-222.086z"/></defs><clipPath id="b"><use xlink:href="#a" overflow="visible"/></clipPath><path clip-path="url(#b)" stroke="#6E0000" stroke-width="2" stroke-linecap="round" stroke-linejoin="round" stroke-miterlimit="10" fill="none" d="M29.9 1h3.735v54.468h-3.735zM117.892 13.627c.754.178 4.737 0 4.737 0l-.098 43.3-4.639-.334v-42.966zM33.635 12.916c12.983 1.067 77.384 2.134 77.384 2.134l2.137-1.778 46.929 1.423v2.49l47.307 1.244v35.748h-46.774l-.178 2.416h-42.547v-3.839h-22.334l-5.304 2.448-56.62.266v-42.552zM39.682 18.607l22.68.711v17.714h-22.68zM66.537 19.497l21.626.711v17.785l-21.626-.356zM91.435 20.386l.174 18.295h18.252v-17.85zM125.76 20.386l-.017 18.363h27.583v-17.652zM160.262 22.698h6.58v16.051h-6.58zM171.289 23.409v15.339h15.651v-14.628zM190.141 24.298v14.45h14.583v-13.738zM156.256 14.579l-.351 42.014h4.535l-.356-41.898zM207.759 17.018h3.068l.389 37.337-3.824-.178v-37.725"/><path clip-path="url(#b)" stroke="#6E0000" stroke-width="2" stroke-linecap="round" stroke-linejoin="round" stroke-miterlimit="10" fill="none" d="M33.635 8.736l71.806 3.335v-3.335l-71.806-3.868zM105.441 12.071l6.803-2.268v-3.334l-6.803 2.267zM112.243 9.804l58.156 2.268v-2.801l-58.156-2.801zM160.085 14.694l10.314-2.622 50.688 1.488v3.314l-59.224-1.823M105.441 12.071l5.578 2.979M211.216 54.354v14.96l-24.276-.348v1.62l-99.773.089-2.564-.888h-54.703v-14.32M186.939 68.967v-17.991l-11.382-9.96h-15.473M85.885 70.231v-17.655l12.294-13.895h19.713M117.892 43.99h-17.244l-14.763 15.166M85.885 65.611l14.764-15.169h17.243M160.44 45.818l14.228.178 12.271 10.597M160.262 51.509h14.05l12.627 11.877M29.9 1l-28.9 22.542v42.069l28.9 4.175"/></svg>