<svg xmlns="http://www.w3.org/2000/svg" xmlns:xlink="http://www.w3.org/1999/xlink" width="630.455" height="208.857" viewBox="0 0 630.455 208.857"><desc>Nix Mix: Diner &amp; Bar</desc><defs><path id="a" d="M0 0h630.455v208.857H0z"/></defs><clipPath id="b"><use xlink:href="#a" overflow="visible"/></clipPath><path clip-path="url(#b)" fill="#6E0000" d="M133.714 133.64c-.52-1.432-1.197-3.336-2.027-5.712-.83-2.38-1.754-5.427-2.765-9.15-.507-1.86-1.245-4.92-2.213-9.186-.973-4.262-2.06-9.073-3.264-14.43-1.207-5.358-2.448-11.003-3.72-16.93-1.276-5.928-2.448-11.505-3.517-16.733-1.075-5.227-2-9.792-2.788-13.695-.787-3.905-1.227-6.566-1.315-7.982-.494-4.26-.55-8.56-.18-12.9.373-4.338 1.353-7.876 2.948-10.615l-38.838 8.35c3.3 3.232 6.09 6.318 8.372 9.26 2.28 2.943 3.98 6.532 5.105 10.76.372 1.253.97 3.666 1.794 7.24.82 3.58 1.77 7.753 2.85 12.526 1.08 4.772 2.247 9.95 3.5 15.537 1.256 5.59 2.44 10.975 3.558 16.165-5.964-5.477-11.814-10.796-17.544-15.952C77.942 75.037 72.45 69.897 67.2 64.77c-5.25-5.127-10.208-10.33-14.876-15.607-4.673-5.277-8.985-10.82-12.945-16.625L0 41.004c2.992 2.766 5.184 4.73 6.58 5.893 1.393 1.165 2.51 2.15 3.348 2.953.84.808 1.68 1.69 2.528 2.653.845.963 2.323 2.522 4.438 4.676.53 1.96 1.278 5.074 2.247 9.34.97 4.262 2.064 9.096 3.28 14.505 1.217 5.41 2.457 11.05 3.72 16.928 1.263 5.878 2.426 11.406 3.485 16.58 1.06 5.176 1.954 9.72 2.693 13.637.735 3.914 1.198 6.57 1.393 7.964.49 4.26.7 8.526.635 12.8-.067 4.275-.897 7.78-2.49 10.518l37.77-8.12c-3.422-3.31-6.232-6.42-8.424-9.33-2.19-2.907-3.853-6.48-4.975-10.707-.364-1.2-.966-3.574-1.808-7.118-.842-3.545-1.805-7.704-2.88-12.48-1.08-4.77-2.233-9.885-3.46-15.346-1.226-5.455-2.386-10.73-3.484-15.82 5.46 5.11 10.9 10.273 16.33 15.497 5.43 5.22 10.958 10.393 16.578 15.52 5.622 5.127 11.36 10.242 17.215 15.345 5.858 5.102 11.977 10.136 18.363 15.097l22.433-4.824c-.53-.737-1.13-1.913-1.796-3.527M598.2 59.263l.255 3.475c.072.098.067.44-.114.962-.338.958-.942 2.038-1.796 3.2-.93 1.264-1.99 2.58-3.14 3.914-1.207 1.386-2.298 2.673-3.24 3.82-1.275 1.538-2.964 3.436-5.02 5.64-1.453 1.552-3.054 3.29-4.792 5.19-.57-2.41-1.107-4.607-1.603-6.56-.708-2.785-1.313-5.22-1.798-7.237l-.007-.03c-.35-1.37-.678-2.946-.972-4.68-.29-1.746-.513-3.427-.66-4.997-.136-1.478-.136-2.772.014-3.842.093-.658.246-.897.282-.945l1.89-2.905-32.753-8.125c1.137 2.583 4.552 13.738 5.747 17.318 1.2 3.612 2.43 7.55 3.65 11.707 1.216 4.16 2.322 8.176 3.282 11.93.87 3.402 1.728 6.775 2.553 10.018.58 2.294.97 3.846 1.23 4.88-2.62 2.863-5.552 6.166-8.722 9.84-3.43 3.97-6.977 7.928-10.55 11.77-3.54 3.81-5.414 6.106-8.7 9.313-1.39 1.358-5.744 6.323-7.205 8.115l-2.636 2.727 32.26 7.786c-.48-.53-.542-4.94-.237-6.196l.007-.035c.39-1.784 1.348-3.95 2.852-6.438 1.484-2.473 3.43-5.227 5.78-8.18 1.736-2.182 3.643-4.436 5.705-6.73.672 2.61 1.322 5.178 1.944 7.675.877 3.526 1.56 6.824 2.026 9.806.46 2.903.634 5.434.523 7.523-.048.633-.136 1.218-.26 1.746-.22.894-1.29 4.328-1.775 4.827l36.438 8.794c-.76-1.14-3.19-6.536-4.232-8.843-1.088-2.413-2.248-5.233-3.44-8.377-1.2-3.156-2.397-6.584-3.56-10.182-1.173-3.616-2.315-7.27-3.403-10.86-1.078-3.55-2.12-7.027-3.1-10.33-.812-2.73-1.558-5.232-2.22-7.448.736-.757 1.77-1.858 3.135-3.323 2.3-2.476 4.5-4.852 6.72-7.252 2.53-2.734 5.324-5.69 8.3-8.785 2.95-3.07 5.892-5.985 8.738-8.658 2.803-2.64 4.69-4.806 7.22-6.662 2.944-2.165 6.395-5.306 7.635-6.57L598.2 59.263zm-304.143 61.39c-1.082-.837-5.105-5.18-6.83-7.028-1.803-1.94-3.8-4.242-5.936-6.845-2.143-2.608-4.37-5.473-6.622-8.513-2.263-3.05-4.51-6.15-6.688-9.205-2.155-3.023-4.252-5.984-6.234-8.802-1.637-2.33-3.14-4.46-4.48-6.35.456-.953 1.087-2.325 1.91-4.15 1.393-3.083 2.718-6.03 4.057-9.017 1.527-3.398 3.228-7.09 5.062-10.972 1.82-3.85 3.677-7.55 5.52-10.996 1.817-3.392 2.913-6.05 4.718-8.617 2.1-2.99 4.365-7.067 5.137-8.658l-33.053 2.91 1.352 3.21c.1.07.206.395.198.948-.014 1.02-.243 2.235-.682 3.607-.475 1.496-1.06 3.08-1.727 4.713-.7 1.696-1.327 3.263-1.856 4.652-.713 1.865-1.71 4.2-2.956 6.945-.88 1.938-1.845 4.096-2.885 6.45-1.31-2.103-2.518-4.012-3.61-5.708-1.56-2.412-2.91-4.526-4.014-6.285l-.015-.025c-.773-1.186-1.586-2.575-2.412-4.126-.836-1.56-1.587-3.082-2.222-4.523-.604-1.356-1.012-2.583-1.21-3.648-.126-.65-.056-.927-.036-.984l.86-3.356-33.63 2.75c1.9 2.085 8.694 11.566 10.97 14.578 2.29 3.04 4.713 6.378 7.195 9.927 2.48 3.555 4.81 7.01 6.918 10.26 1.91 2.948 3.798 5.87 5.613 8.68l2.728 4.233c-1.574 3.55-3.3 7.617-5.132 12.112-1.98 4.854-4.082 9.737-6.24 14.52-2.14 4.737-3.184 7.51-5.273 11.6-.886 1.728-3.428 7.826-4.244 9.992l-1.627 3.42 33.06-2.91c-.623-.348-2.09-4.507-2.204-5.795l-.006-.037c-.197-1.817.02-4.175.648-7.01.62-2.82 1.585-6.05 2.87-9.6.95-2.618 2.043-5.366 3.26-8.198 1.47 2.26 2.907 4.49 4.292 6.657 1.957 3.06 3.657 5.968 5.052 8.643 1.358 2.606 2.33 4.948 2.892 6.965.16.615.263 1.197.31 1.735.08.916.162 4.513-.14 5.14l37.34-3.29zm234.44-77.67L494.48 36.15l1.313 3.22c1.257 3.09 1.844 5.884 1.752 8.305-.103 2.604-.4 5.556-.882 8.768-.243 1.213-.61 3.25-1.09 6.055-.498 2.886-1.12 6.29-1.85 10.107-.727 3.858-1.535 8.08-2.394 12.563-.41 2.196-.848 4.412-1.306 6.587-.44 2.1-.887 4.27-1.328 6.444-.912 4.35-1.734 8.154-2.514 11.625-.785 3.52-1.475 6.34-2.045 8.386-.638 2.09-1.237 4.022-1.777 5.754-.455 1.473-.886 2.748-1.273 3.786-.373 1.002-.747 1.838-1.097 2.488-.345.634-.712 1.21-1.097 1.702l-1.857 2.383 33.932 6.818.198-3.13c-1.034-1.232-1.306-2.084-2.012-3.488-.62-1.25-1.107-3.01-1.44-5.23-.34-2.226-.233-5.13.316-8.63l.003-.02c.212-1.452.624-3.808 1.223-7.005.604-3.204 1.288-6.887 2.045-10.95.724-3.913 1.498-8.083 2.37-12.74.823-4.408 1.62-8.632 2.37-12.556.75-3.934 1.407-7.42 1.956-10.36l.525-2.626c.307-1.52.556-2.644.736-3.35.454-1.643.847-3.234 1.167-4.727.297-1.387.67-2.704 1.107-3.916.426-1.18.99-2.365 1.68-3.52.667-1.122 1.605-2.28 2.78-3.436l2.506-2.47zm-371.26 89.895l-.928 2.877 34.217-5.2-.883-3.007c-1.39-.804-1.94-1.513-3.086-2.592-1.013-.96-2.07-2.45-3.14-4.423-1.078-1.972-1.972-4.738-2.654-8.218l-.007-.02c-.298-1.432-.716-3.787-1.243-7-.532-3.215-1.146-6.912-1.826-10.984-.656-3.928-1.35-8.11-2.126-12.788-.732-4.422-1.428-8.663-2.068-12.606-.643-3.953-1.217-7.458-1.703-10.4l-.405-2.65c-.23-1.535-.384-2.677-.458-3.403-.132-1.698-.31-3.327-.517-4.84-.193-1.407-.294-2.77-.298-4.06-.002-1.253.123-2.56.376-3.883.244-1.282.727-2.688 1.436-4.18l1.51-3.176-34.3 5.21 2.332 2.577c2.237 2.474 3.747 4.898 4.484 7.204.795 2.484 1.524 5.36 2.172 8.544.186 1.218.538 3.257 1.044 6.06.52 2.885 1.1 6.292 1.725 10.13.628 3.876 1.317 8.12 2.043 12.626.365 2.203.712 4.435 1.024 6.635.304 2.124.627 4.314.96 6.51.625 4.4 1.152 8.256 1.608 11.784.463 3.576.784 6.463.946 8.58.114 2.178.216 4.203.302 6.013.07 1.543.102 2.887.093 3.997-.01 1.065-.07 1.98-.176 2.71-.11.713-.263 1.38-.453 1.974m256.11-31.11c2.575-5.295 5.276-10.803 8.096-16.525 2.818-5.722 5.48-11.063 7.977-16.028 2.5-4.963 4.46-9.343 5.884-13.142 1.426-3.798 3.08-6.33 3.65-8.007-.212 4.048-.432 8.53-.65 14.01-.22 5.48-1.134 11.21-1.43 17.02-.234 4.36-.516 8.664-.847 12.91-.11 1.398-.22 2.798-.327 4.195-.48 5.488-1.144 10.334-1.987 14.542-.847 5.09-1.683 9.168-2.503 12.232-.82 3.062-1.503 5.173-2.042 6.33l37.19 2.893c-.92-1.582-1.836-3.882-2.75-6.895-.91-3.015-1.572-7.25-1.98-12.7-.417-5.348-.717-11.364-.9-18.047-.184-6.684-.257-13.607-.22-20.77.036-7.162.177-14.33.42-21.5.248-7.172.628-14.048 1.14-20.626.47-6.06 1.17-10.943 2.115-14.65.943-3.7 1.824-6.175 2.65-7.412l-30.848-2.402c.226.486.302 1.17.237 2.05-.083 1.04-.35 2.346-.79 3.926-.876 2.953-2.143 6.582-3.793 10.883-1.656 4.3-3.653 9.056-5.99 14.267-2.343 5.21-4.825 10.462-7.442 15.755-2.62 5.294-5.24 10.46-7.862 15.49-2.627 5.033-5.085 9.545-7.39 13.534-1.916-6.453-3.827-13.167-5.73-20.142-1.905-6.974-3.742-13.943-5.513-20.907-1.773-6.963-3.407-13.76-4.91-20.39-1.5-6.63-2.857-12.833-4.08-18.61L343.534 0c.625 1.352 1.22 3.94 1.785 7.757.56 3.825.603 8.766.13 14.825-.667 8.598-1.487 17.264-2.453 25.995-.966 8.73-2.14 17.328-3.528 25.79-1.392 8.464-3.06 16.686-5.01 24.663-1.95 7.977-4.208 15.432-6.78 22.372l34.254 2.667c-1.014-5.604-1.494-11.933-1.437-18.99.056-7.055.39-14.273.99-21.65.597-7.38 1.326-14.632 2.184-21.756.854-7.125 1.62-13.605 2.295-19.44.508 1.76 1.386 4.642 2.633 8.647 1.25 4.006 2.678 8.65 4.282 13.935 1.604 5.282 3.328 10.94 5.172 16.972 1.844 6.034 3.647 11.89 5.41 17.58 1.762 5.686 3.426 10.907 4.99 15.668 1.565 4.76 2.778 8.554 3.636 11.383l9.7.752c.993-2.578 2.527-6.133 4.594-10.663 2.066-4.526 4.39-9.44 6.966-14.74m80.53 88.853c0-3.207-2.6-5.805-5.806-5.805-3.207 0-5.808 2.598-5.808 5.805 0 3.21 2.6 5.807 5.808 5.807 3.206 0 5.807-2.598 5.807-5.807m-337.02 0c0-3.207-2.6-5.805-5.805-5.805-3.21 0-5.81 2.598-5.81 5.805 0 3.21 2.6 5.807 5.81 5.807 3.204 0 5.805-2.598 5.805-5.807m25.92-20.655c-.967 0-1.838.035-2.584.086v-.085h-4.565v38.424h1.305c.254.12.538.196.836.215 1.275.082 2.538.122 3.76.122 9.168 0 15.97-2.306 20.213-6.856 4.83-5.17 4.37-11.162 4.37-11.164-.25-18.72-16.403-20.74-23.337-20.74m15.588 28.832c-3.54 3.765-9.66 5.56-18.168 5.344V174.63c.688-.05 1.573-.097 2.58-.097 12.31 0 18.626 5.487 18.77 16.344.003.043.18 4.352-3.182 7.92M214.095 172.366v36.025h4.567v-38.424h-4.567zm40.754-.02l-.004.02v27.496l-20.01-29.896v1.672-1.66l-4.566-.012v38.424l4.567.01v-2.273l.003-.02v-27.435l20.01 29.718v-1.557 1.557h4.567v-38.424h-4.568v2.38zm14.074-2.382v38.427h22.59v-4.567h-18.022v-12.245h13.802v-4.685h-13.802V174.65h18.022v-4.686h-18.022zm42.16 21.522c4.552-.507 7.968-1.855 10.172-4.018 2.46-2.416 2.614-5.01 2.603-5.68.222-3.073-.72-5.642-2.8-7.635-3.73-3.57-10.416-4.32-15.376-4.32-1.434 0-2.684.064-3.6.13h-3.578v38.894h4.564v-2.266l.004-.02V191.6c.948.06 1.926.094 2.988.105m-2.988-4.68V174.47c.82-.046 1.678-.07 2.52-.07 3.406 0 9.53.395 12.304 3.05 1.093 1.05 1.455 2.35 1.42 3.854l-.024.503c0 .05-.017 1.2-1.24 2.4-1.605 1.58-5.528 3.48-14.98 2.817m84.948 4.462c4.55-.507 7.964-1.855 10.172-4.018 2.458-2.416 2.613-5.01 2.6-5.68.225-3.073-.716-5.642-2.8-7.635-3.728-3.57-10.417-4.32-15.375-4.32-1.432 0-2.683.064-3.602.13h-3.576v38.894h4.565V191.6c.954.06 1.927.094 2.994.105m-2.993-4.68V174.47c.82-.046 1.678-.07 2.52-.07 3.407 0 9.53.395 12.304 3.05 1.098 1.05 1.46 2.35 1.42 3.854l-.02.503c0 .05-.017 1.2-1.24 2.4-1.604 1.58-5.53 3.48-14.983 2.817m-70.554 4.392l11.517 17.44h5.235l-11.928-17.907m141.933.536c4.548-.507 7.966-1.855 10.17-4.018 2.457-2.416 2.615-5.01 2.604-5.68.22-3.073-.718-5.642-2.802-7.635-3.728-3.57-10.415-4.32-15.373-4.32-1.435 0-2.685.064-3.602.13h-3.58v38.894h4.565v-2.266l.004-.02V191.6c.95.06 1.926.094 2.99.105m-2.99-4.68V174.47c.818-.046 1.677-.07 2.518-.07 3.407 0 9.532.395 12.306 3.05 1.094 1.05 1.456 2.35 1.42 3.854l-.02.503c0 .05-.018 1.2-1.244 2.4-1.604 1.58-5.525 3.48-14.98 2.817m6.375 4.392l11.522 17.44h5.238l-11.928-17.907m-109.068-8.345c0-1.418-.904-2.757-2.717-2.757-1.696 0-3.156 1.143-3.156 3.034 0 1.576 1.107 2.76 2.288 4.02l6.073 6.507c.475-1.304.707-2.76.788-4.38h3.625c-.08 2.488-.71 4.97-1.893 7.06l4.89 5.24h-5.127l-2.124-2.205c-1.735 1.615-3.985 2.6-6.626 2.6-4.772 0-8.042-3.112-8.042-7.488 0-2.8 1.734-5.164 4.178-6.466-1.144-1.42-1.81-2.837-1.81-4.77 0-3.902 2.994-6.267 6.937-6.267 4.296 0 6.622 2.682 6.622 5.872h-3.906zm.476 14.153l-6.192-6.583c-1.538.67-2.6 2.248-2.6 4.062 0 2.52 1.694 4.256 4.336 4.256 1.813 0 3.313-.63 4.456-1.735m48.1-5.235c-3.728-3.57-10.418-4.318-15.372-4.318-1.436 0-2.684.064-3.606.133h-3.576l3.65 7.775.035-3.27c.82-.047 2.562-.072 3.407-.072 3.404 0 9.528.398 12.303 3.054 1.095 1.048 1.455 2.346 1.414 3.853l-.017.502c0 .046-.016 1.197-1.243 2.4-1.254 1.23-4.06 2.68-9.658 2.935l1.77 4.34c5.392-.372 8.89-1.853 11.092-4.017 2.458-2.415 2.616-5.006 2.605-5.68.22-3.07-.718-5.638-2.803-7.635"/><path clip-path="url(#b)" fill="#6E0000" d="M388.022 208.855h-8.817v-4.66s4.564.374 7.042.32l1.775 4.34zm36.73-39.217h-5.71l-11.81 39.02h4.99l3.698-12.302 12.127.07 4.124 12.233h4.782l-12.2-39.022zm-7.688 22.596l4.943-16.79 4.695 16.76-9.638.03z"/></svg>